<svg width="136" height="96" viewBox="0 0 136 96" fill="none" xmlns="http://www.w3.org/2000/svg">
<path d="M39.4222 11.5897C41.7102 11.0103 44.015 10.0909 45.6703 8.88239C50.0072 5.71626 52.5279 -0.644405 46.9756 0.0529893C45.3619 0.255723 44.1946 0.295814 43.2447 0.328457C40.9259 0.408102 39.8987 0.443387 36.8227 2.68931C35.569 3.60427 34.4701 4.58526 33.5717 5.5588C28.7955 2.03339 22.4337 0.457745 11.3184 1.00364C10.3751 1.00364 9.60985 1.76182 9.60985 2.69676C9.60985 3.6317 10.3745 4.38987 11.3178 4.38987H17.2521C18.2269 5.01294 19.0643 5.59503 19.8027 6.15139L7.56035 21.321H6.83638C2.25992 21.321 -1.02243 25.6944 0.292611 30.0396L1.3174 33.4258C2.18433 36.2906 4.84413 38.2522 7.86116 38.2522H19.3441C20.7879 38.2522 22.1949 38.7056 23.3625 39.5478L30.8437 44.941C31.0702 45.1043 31.3015 45.2516 31.5368 45.3829C36.8907 59.0586 42.5341 69.713 48.8574 75.0728L50.0359 89.0921C48.4185 89.3589 47.1853 90.7527 47.1853 92.4319C47.1853 94.3022 48.7146 95.8182 50.6013 95.8182H60.8491V65.3421H94.3623C99.4159 70.2223 105.084 74.0491 113.796 75.5008L114.939 89.0921C113.322 89.3589 112.088 90.7527 112.088 92.4319C112.088 94.3022 113.618 95.8182 115.504 95.8182H125.752V45.0721V45.0247V34.866C125.752 30.0548 124.128 25.6344 121.413 22.1541C123.549 22.7223 125.041 23.5529 126.094 24.5566C127.998 26.3696 129.168 29.4216 129.168 34.866L130.49 53.2177C129.686 54.4567 129.168 56.3933 129.168 58.5696C129.168 62.31 130.697 65.3421 132.584 65.3421C134.471 65.3421 136 62.31 136 58.5696C136 56.3933 135.482 54.4567 134.678 53.2177L136 34.866C136 28.6546 134.692 23.3541 130.828 19.673C127.013 16.0399 121.414 14.6698 114.525 14.5547C114.265 14.5503 107.157 14.5486 106.964 14.5486V14.5716C106.65 14.5564 106.334 14.5486 106.015 14.5486H55.7252C49.1177 14.5486 44.128 13.5747 39.9408 12.2862C39.7683 12.0505 39.5954 11.8183 39.4222 11.5897Z" fill="white"/>
<path d="M43.9567 30.1473V29.1393H44.2807C44.2567 29.1393 45.0607 29.1633 46.6927 29.2113C48.1087 29.2353 49.6567 29.2353 51.3367 29.2113L54.2167 29.1393H54.6127V30.1473V31.1553H53.7127C52.4167 31.2033 51.7327 31.2993 51.6607 31.4433L57.8167 48.5433L60.7327 40.4793C62.6527 35.1753 63.6127 32.4513 63.6127 32.3073C63.6127 32.1633 63.5407 32.0073 63.3967 31.8393C63.0127 31.4553 62.3407 31.2273 61.3807 31.1553H61.0207V30.1473V29.1393H61.3447L63.7207 29.2113C66.2647 29.2593 68.1247 29.2353 69.3007 29.1393H69.5527V30.1473V31.1553H69.2287C68.7967 31.1553 68.2927 31.2033 67.7167 31.2993C66.7807 31.4913 66.1687 31.8153 65.8807 32.2713C65.8567 32.2953 64.5127 35.9673 61.8487 43.2873C59.2807 50.5353 57.9607 54.1953 57.8887 54.2673C57.8647 54.3393 57.7927 54.3993 57.6727 54.4473C57.5767 54.4953 57.2767 54.5193 56.7727 54.5193C56.2447 54.5193 55.9327 54.4953 55.8367 54.4473C55.7167 54.3993 55.6447 54.3393 55.6207 54.2673C55.5727 54.2193 54.1927 50.4153 51.4807 42.8553C48.7687 35.2953 47.3887 31.4913 47.3407 31.4433C47.2447 31.2993 46.8967 31.2153 46.2967 31.1913C46.0807 31.1673 45.5887 31.1553 44.8207 31.1553H43.9567V30.1473ZM71.0647 30.1473V29.1393H71.4607L74.3407 29.2113C76.0207 29.2353 77.8207 29.2353 79.7407 29.2113C81.9727 29.1633 83.0767 29.1393 83.0527 29.1393H83.4847V30.1473V31.1553H81.6847C80.0047 31.1793 79.0927 31.2633 78.9487 31.4073C78.9007 31.4313 78.8767 34.7793 78.8767 41.4513V51.4233L78.9487 51.4953C78.9727 51.5193 79.0447 51.5673 79.1647 51.6393C79.4287 51.7353 80.7007 51.7593 82.9807 51.7113C83.2207 51.6873 83.3887 51.6753 83.4847 51.6753C85.8127 51.4593 87.3967 50.5113 88.2367 48.8313C88.7407 47.8953 89.1007 46.4793 89.3167 44.5833C89.3647 44.0793 89.4007 43.7913 89.4247 43.7193V43.5393H90.3247H91.2247V43.7193C91.2007 43.7673 91.0327 45.3993 90.7207 48.6153C90.4087 51.8553 90.2407 53.4993 90.2167 53.5473V53.7273H80.6407H71.0647V52.7193V51.7113H72.0727C73.7527 51.7113 74.6407 51.6273 74.7367 51.4593V31.4073C74.6407 31.2393 73.7527 31.1553 72.0727 31.1553H71.0647V30.1473ZM97.9567 30.1473V29.1393H98.3887C98.3647 29.1393 99.5047 29.1633 101.809 29.2113C103.777 29.2353 105.445 29.2353 106.813 29.2113L109.189 29.1393H109.513V30.1473V31.1553H108.757C107.461 31.1553 106.801 31.2513 106.777 31.4433C106.753 31.4673 106.741 34.4553 106.741 40.4073L106.705 49.2633L106.633 49.5873C106.153 51.4593 104.965 52.8513 103.069 53.7633C101.221 54.6273 99.3127 54.7713 97.3447 54.1953C96.9367 54.0753 96.5527 53.9313 96.1927 53.7633C95.5687 53.4513 95.0527 53.0913 94.6447 52.6833C94.0207 52.0593 93.6127 51.3753 93.4207 50.6313C93.3727 50.4393 93.3487 50.1273 93.3487 49.6953C93.3487 49.2873 93.3727 48.9873 93.4207 48.7953C93.5407 48.5553 93.6127 48.3993 93.6367 48.3273C93.9007 47.8713 94.3447 47.5233 94.9687 47.2833C95.1367 47.2353 95.4127 47.2113 95.7967 47.2113C96.1567 47.2113 96.4327 47.2353 96.6247 47.2833C97.0567 47.4513 97.3807 47.6673 97.5967 47.9313C97.9807 48.3153 98.1967 48.8433 98.2447 49.5153C98.2447 50.0193 98.1607 50.4393 97.9927 50.7753C97.7527 51.2313 97.4047 51.5793 96.9487 51.8193L96.6607 51.9633C96.7327 52.1073 96.9967 52.2513 97.4527 52.3953C98.3167 52.7793 99.1087 52.9113 99.8287 52.7913C100.861 52.6713 101.653 52.0353 102.205 50.8833C102.421 50.4513 102.577 49.9953 102.673 49.5153C102.697 49.3713 102.721 46.3113 102.745 40.3353C102.745 34.4073 102.721 31.4313 102.673 31.4073C102.625 31.3593 102.529 31.3113 102.385 31.2633C101.809 31.1913 100.753 31.1553 99.2167 31.1553H97.9567V30.1473Z" fill="#990003"/>
</svg>
